<svg xmlns="http://www.w3.org/2000/svg" xmlns:xlink="http://www.w3.org/1999/xlink" width="42" height="42"><defs><linearGradient id="b" x1="992.183" x2="1019.298" y1="516.081" y2="545.959" gradientTransform="translate(-1332.367 316.47) scale(1.34562)" gradientUnits="userSpaceOnUse" xlink:href="#a"/><linearGradient id="a"><stop offset="0" stop-color="#ff1679"/><stop offset="1" stop-color="#ff770b"/></linearGradient></defs><g transform="translate(0 -1010.362)"><rect width="42" height="42" y="1010.362" fill="url(#b)" rx="8.876" ry="8.876"/><path fill="#fff" style="line-height:normal;text-indent:0;text-align:start;text-decoration-line:none;text-decoration-style:solid;text-decoration-color:#000;text-transform:none;block-progression:tb;isolation:auto;mix-blend-mode:normal" d="M27.836 1016.196a.5.5 0 0 0-.082.016l-1.994.535a.5.5 0 0 0 .26.967l.814-.219c-3.507 5.79-11.455 12.796-19.428 14.377a.5.5 0 1 0 .196.983c8.409-1.668 16.452-8.808 20.107-14.875l.223.834a.5.5 0 1 0 .967-.258l-.534-1.99a.5.5 0 0 0-.478-.37.5.5 0 0 0-.05 0zm-1.586 7.082a.5.5 0 0 0-.5.5v9.12a6.515 6.515 0 0 1 1-.342v-8.278h2v6a1 1 0 0 1 1 1v-7.5a.5.5 0 0 0-.5-.5h-3zm-6 5.996a.5.5 0 0 0-.5.5v8.5a1 1 0 0 1 .045-.295 1 1 0 0 1 .078-.183 1 1 0 0 1 .877-.522v-6.996h2v5.235c.28-.473.614-.907 1-1.29v-4.443a.5.5 0 0 0-.5-.5l-3-.01zm7.5 2.004v2.024a5.509 5.509 0 0 0-4.974 4.976H20.75v1h2.026a5.509 5.509 0 0 0 4.974 4.975v2.025h1v-2.025a5.509 5.509 0 0 0 4.975-4.975h2.025v-1h-2.025a5.509 5.509 0 0 0-4.975-4.976v-2.024h-1zm-13.5 2.084a.5.5 0 0 0-.5.5v12a.5.5 0 0 0 .5.5h3a.5.5 0 0 0 .5-.5v-12a.5.5 0 0 0-.5-.5h-3zm13.5.965v1.002a3.491 3.491 0 0 0-2.95 2.95h-1a4.46 4.46 0 0 1 3.95-3.952zm1 0a4.46 4.46 0 0 1 3.95 3.951h-1a3.491 3.491 0 0 0-2.95-2.949v-1.002zm-14 .035h2v11h-2v-11zm-6.5 1a.5.5 0 0 0-.5.5v10a.5.5 0 0 0 .5.5h3a.5.5 0 0 0 .5-.5v-10a.5.5 0 0 0-.5-.5h-3zm19.494.965h.006v1.043a1.51 1.51 0 0 0-.906.908H25.8a2.49 2.49 0 0 1 1.943-1.951zm1.006 0a2.49 2.49 0 0 1 1.95 1.951h-1.044a1.51 1.51 0 0 0-.906-.908v-1.043zm-20 .035h2v9h-2v-9zm11 2.916v6.496a.5.5 0 0 0 .5.5l3-.01a.5.5 0 0 0 .5-.5v-2.443a6.354 6.354 0 0 1-1-1.29v3.235h-2v-4.992a1 1 0 0 1-1-.996zm4.05 0h1a3.492 3.492 0 0 0 2.95 2.949v1a4.46 4.46 0 0 1-3.95-3.95zm2 0h1.044c.152.42.485.754.906.906v1.043a2.49 2.49 0 0 1-1.95-1.95zm3.856 0H30.7a2.49 2.49 0 0 1-1.949 1.949v-1.043a1.51 1.51 0 0 0 .906-.906zm2.043 0h1a4.46 4.46 0 0 1-3.949 3.949v-1a3.492 3.492 0 0 0 2.95-2.95zm-5.949 5.377v1.117a.5.5 0 0 0 .5.5h.5V1044.995a6.525 6.525 0 0 1-1-.342z" color="#000" font-family="sans-serif" font-weight="400" overflow="visible"/></g></svg>