<svg width="487" height="331" viewBox="0 0 487 331" fill="none" xmlns="http://www.w3.org/2000/svg">
<g clip-path="url(#clip0_16_354)">
<path d="M295.555 185.518C296.385 185.518 297.18 185.848 297.767 186.434C298.353 187.021 298.683 187.816 298.683 188.646V218.902H358.677C359.506 218.902 360.302 219.231 360.888 219.818C361.475 220.404 361.804 221.2 361.804 222.03C361.804 222.859 361.475 223.655 360.888 224.241C360.302 224.828 359.506 225.157 358.677 225.157H298.683V329.79H292.428V188.646C292.428 187.816 292.757 187.021 293.344 186.434C293.93 185.848 294.726 185.518 295.555 185.518V185.518Z" fill="#E6E6E6"/>
<path d="M128.601 329.08L117.323 329.391C115.61 329.479 113.915 329.004 112.497 328.039C111.273 327.128 110.711 325.896 110.957 324.659L113.176 313.506C113.595 311.402 116.173 309.812 119.307 309.725L125.535 309.553C128.668 309.467 131.33 310.912 131.864 312.99L134.696 324.004C135.01 325.225 134.517 326.486 133.344 327.463C131.982 328.505 130.316 329.073 128.601 329.08V329.08Z" fill="#3F3D56"/>
<path d="M197.198 328.761L185.921 329.073C184.208 329.161 182.513 328.686 181.095 327.72C179.87 326.809 179.309 325.577 179.555 324.341L181.774 313.188C182.192 311.083 184.771 309.493 187.904 309.406L194.132 309.234C197.266 309.148 199.928 310.594 200.462 312.671L203.293 323.685C203.607 324.906 203.114 326.167 201.942 327.144C200.58 328.187 198.914 328.755 197.198 328.761V328.761Z" fill="#3F3D56"/>
<path d="M89.4395 234.077C88.9243 233.855 88.5003 233.464 88.2377 232.968C87.9751 232.472 87.8896 231.901 87.9954 231.35C88.1011 230.799 88.3918 230.301 88.8194 229.938C89.2469 229.574 89.7857 229.368 90.3465 229.353L218.561 225.812C218.884 225.803 219.206 225.858 219.508 225.973C219.81 226.089 220.086 226.263 220.321 226.485C220.556 226.707 220.745 226.973 220.877 227.269C221.009 227.564 221.082 227.882 221.091 228.205V228.205C221.108 228.858 220.866 229.491 220.417 229.965C219.968 230.439 219.35 230.716 218.697 230.735L218.697 230.735L90.4825 234.275C90.1245 234.286 89.7685 234.218 89.4395 234.077Z" fill="#3F3D56"/>
<path d="M136.758 191.632L100.108 192.644L103.525 316.383L140.175 315.371L136.758 191.632Z" fill="#E6E6E6"/>
<path d="M137.688 189.409L130.643 208.6L130.649 296.037L139.233 298.498L137.688 189.409Z" fill="#CCCCCC"/>
<path d="M118.242 159.294C111.385 159.489 106.154 171.355 106.28 175.985L106.511 184.368L131.338 183.683L131.107 175.3C130.977 170.669 125.099 159.11 118.242 159.294Z" fill="#3F3D56"/>
<path d="M100.583 243.887C99.302 243.921 98.0598 243.445 97.129 242.565C96.1981 241.684 95.6547 240.47 95.6178 239.189L95.2411 225.546C95.2057 224.265 95.6808 223.022 96.562 222.09C97.4431 221.159 98.658 220.616 99.9395 220.581C101.221 220.546 102.464 221.021 103.395 221.902C104.326 222.783 104.869 223.998 104.905 225.279L105.281 238.922C105.315 240.203 104.84 241.445 103.959 242.376C103.078 243.307 101.864 243.85 100.583 243.887Z" fill="#3F3D56"/>
<path d="M109.883 192.937L109.71 183.921L112.074 183.862L112.248 192.849L114.391 323.838L112.026 323.903" fill="#3F3D56"/>
<path d="M140.96 214.021L98.4592 215.195C94.3998 210.244 94.0311 189.154 102.503 185.14L105.825 179.499L131.439 178.249L134.433 184.189C138.647 187.774 140.82 208.733 140.96 214.021Z" fill="#E6E6E6"/>
<path d="M124.963 203.906L114.215 204.203C112.141 204.26 110.378 201.569 110.285 198.206C110.192 194.842 111.804 192.058 113.878 192.001L124.626 191.704C126.7 191.647 128.463 194.337 128.556 197.701C128.649 201.065 127.037 203.849 124.963 203.906Z" fill="#6C63FF"/>
<path d="M104.151 264.75L81.9963 280.399L78.126 315.684L103.97 307.049L104.151 264.75Z" fill="#E6E6E6"/>
<path d="M207.504 190.116L170.854 191.128L174.271 314.867L210.921 313.855L207.504 190.116Z" fill="#E6E6E6"/>
<path d="M171.733 189.822L179.274 208.824L181.537 296.232L173.019 298.915L171.733 189.822Z" fill="#CCCCCC"/>
<path d="M225.833 155.762C228.486 155.762 230.637 152.878 230.637 149.321C230.637 145.763 228.486 142.879 225.833 142.879C223.18 142.879 221.029 145.763 221.029 149.321C221.029 152.878 223.18 155.762 225.833 155.762Z" fill="#E6E6E6"/>
<path d="M188.274 157.798C181.417 157.993 176.186 169.859 176.312 174.489L176.543 182.872L201.37 182.187L201.139 173.804C201.009 169.174 195.131 157.614 188.274 157.798Z" fill="#3F3D56"/>
<path d="M195.373 195.759L195.199 186.743L197.564 186.684L197.737 195.672L199.88 326.66L197.515 326.726" fill="#3F3D56"/>
<path d="M210.992 212.525L168.491 213.699C167.75 209.22 168.709 188.318 172.535 183.645L175.857 178.004L201.471 176.753L204.465 182.693C212.027 183.309 214.672 203.849 210.992 212.525Z" fill="#E6E6E6"/>
<path d="M195.047 204.293L184.299 204.59C182.225 204.647 180.45 201.534 180.343 197.651C180.236 193.769 181.836 190.562 183.91 190.505L194.658 190.208C196.732 190.151 198.507 193.264 198.614 197.147C198.721 201.03 197.121 204.236 195.047 204.293Z" fill="#6C63FF"/>
<path d="M209.315 255.705L230.733 272.348L232.988 307.774L207.565 297.968L209.315 255.705Z" fill="#E6E6E6"/>
<path d="M203.334 91.6228C180.353 91.6228 153.942 66.1206 130.575 78.2374C59.825 114.924 69.5641 53.5348 49.2383 30.7038L49.9056 29.3653C65.2932 88.0613 79.216 181.591 130.882 76.6805C143.824 50.4006 186.301 91.0221 211.304 89.8237L211.347 91.4325C208.707 91.5599 206.036 91.6233 203.334 91.6228Z" fill="#F2F2F2"/>
<path d="M258.493 95.2316C240.173 109.107 203.722 104.723 192.41 128.491C158.161 200.452 128.86 145.635 98.8728 139.707L98.5967 138.237C128.616 140.727 160.816 136.864 191.715 127.064C219.639 118.209 244.552 105.037 263.76 88.9857L264.766 90.242C262.738 91.9378 260.647 93.601 258.493 95.2316Z" fill="#F2F2F2"/>
<path d="M59.2158 92.0723C61.8688 92.0723 64.0195 89.1883 64.0195 85.6308C64.0195 82.0733 61.8688 79.1893 59.2158 79.1893C56.5628 79.1893 54.4121 82.0733 54.4121 85.6308C54.4121 89.1883 56.5628 92.0723 59.2158 92.0723Z" fill="#E6E6E6"/>
<path d="M208.204 39.7556C210.857 39.7556 213.008 36.8716 213.008 33.3141C213.008 29.7566 210.857 26.8727 208.204 26.8727C205.551 26.8727 203.4 29.7566 203.4 33.3141C203.4 36.8716 205.551 39.7556 208.204 39.7556Z" fill="#E6E6E6"/>
<path d="M103.194 118.07C100.998 119.534 98.7504 116.051 100.989 114.653C103.185 113.189 105.433 116.672 103.194 118.07Z" fill="#E6E6E6"/>
<path d="M184.513 3.76975C182.317 5.23302 180.069 1.7503 182.307 0.352003C184.503 -1.11119 186.751 2.37153 184.513 3.76975Z" fill="#E6E6E6"/>
<path d="M232.439 71.5379L231.042 71.2314L231.348 69.8337L230.417 69.6295L230.11 71.0273L228.713 70.7213L228.509 71.6528L229.906 71.9593L229.6 73.3565L230.532 73.5607L230.838 72.1629L232.235 72.4694L232.439 71.5379Z" fill="#E6E6E6"/>
<path d="M104.369 24.7023C107.73 24.7023 110.455 21.9775 110.455 18.6163C110.455 15.2551 107.73 12.5303 104.369 12.5303C101.008 12.5303 98.2832 15.2551 98.2832 18.6163C98.2832 21.9775 101.008 24.7023 104.369 24.7023Z" fill="#FF6584"/>
<path d="M148.884 10.9128C142.028 11.1076 136.796 22.9736 136.922 27.6041L137.154 35.987L161.981 35.3015L161.749 26.9185C161.619 22.2881 155.741 10.7289 148.884 10.9128Z" fill="#3F3D56"/>
<path d="M163.667 328.349L152.389 328.661C150.676 328.749 148.981 328.274 147.564 327.308C146.339 326.397 145.777 325.165 146.024 323.929L148.243 312.776C148.661 310.671 151.239 309.081 154.373 308.994L160.601 308.822C163.735 308.736 166.397 310.182 166.931 312.259L169.762 323.273C170.076 324.494 169.583 325.755 168.411 326.732C167.048 327.775 165.382 328.343 163.667 328.349V328.349Z" fill="#3F3D56"/>
<path d="M168.697 64.279L132.047 65.2911L138.954 315.415L175.603 314.403L168.697 64.279Z" fill="#E6E6E6"/>
<path d="M154.032 185.354L153.858 176.338L156.223 176.279L156.396 185.266L158.54 316.255L156.175 316.32" fill="#3F3D56"/>
<path d="M175.912 87.1707L126.254 88.542C125.388 83.3083 126.508 58.8864 130.978 53.426L132.204 46.908L166.492 45.9611L168.286 52.3137C173.21 56.5036 175.748 80.9918 175.912 87.1707Z" fill="#E6E6E6"/>
<path d="M167.575 46.7303L132.191 47.7074C130.885 47.7434 129.807 47.0577 129.783 46.1757C129.779 46.0487 129.798 45.922 129.838 45.8013L135.334 28.8693C135.569 28.1443 136.506 27.6118 137.599 27.5816L161.065 26.9337C162.158 26.9035 163.123 27.3835 163.398 28.0944L169.82 44.6973C170.148 45.5464 169.39 46.4301 168.126 46.671C167.944 46.7054 167.76 46.7253 167.575 46.7303V46.7303Z" fill="#E6E6E6"/>
<path d="M135.682 184.204C135.363 184.067 135.061 183.892 134.783 183.684C134.385 183.404 134.056 183.038 133.822 182.612C133.587 182.186 133.453 181.712 133.43 181.226L132.145 134.666C132.092 132.738 133.979 131.117 136.351 131.051L168.028 130.176C170.401 130.11 172.374 131.626 172.427 133.553L173.713 180.114C173.717 180.6 173.609 181.081 173.399 181.519C173.188 181.957 172.88 182.341 172.498 182.642C171.652 183.331 170.597 183.714 169.506 183.728L137.83 184.603C137.094 184.627 136.361 184.491 135.682 184.204V184.204Z" fill="#3F3D56"/>
<path d="M155.956 43.7338L145.209 44.0306C143.135 44.0879 141.381 41.7446 141.3 38.8079C141.219 35.8712 142.84 33.4347 144.914 33.3775L155.662 33.0807C157.736 33.0234 159.49 35.3666 159.571 38.3034C159.652 41.2401 158.03 43.6765 155.956 43.7338Z" fill="#6C63FF"/>
<path d="M410.008 319.887H397.498V228.971C407.962 228.221 415.827 225.016 415.827 221.177C415.827 216.78 405.516 213.215 392.796 213.215C380.077 213.215 369.766 216.78 369.766 221.177C369.766 225.053 377.784 228.281 388.399 228.991V319.887H375.889C374.682 319.887 373.525 320.366 372.672 321.219C371.819 322.073 371.339 323.23 371.339 324.436C371.339 325.643 371.819 326.8 372.672 327.653C373.525 328.506 374.682 328.986 375.889 328.986H410.008C411.215 328.986 412.372 328.506 413.225 327.653C414.078 326.8 414.557 325.643 414.557 324.436C414.557 323.23 414.078 322.073 413.225 321.219C412.372 320.366 411.215 319.887 410.008 319.887Z" fill="#E6E6E6"/>
<path d="M384.895 273.732L380.785 278.21L361.557 264.49L367.621 257.881L384.895 273.732Z" fill="#A0616A"/>
<path d="M374.388 285.551C374.428 286.553 374.667 287.536 375.09 288.445C375.514 289.353 376.113 290.169 376.854 290.844L377.034 291.012L382.424 285.139L390.283 276.573L384.481 271.246L383.434 272.391L383.324 272.509L378.103 274.978L376.997 275.504L376.807 275.593L376.391 280.065V280.069C375.71 280.804 375.182 281.668 374.838 282.609C374.495 283.55 374.342 284.55 374.388 285.551V285.551Z" fill="#2F2E41"/>
<path d="M406.186 318.406L400.37 320.173L390.788 298.582L399.371 295.975L406.186 318.406Z" fill="#A0616A"/>
<path d="M390.556 329.051L390.628 329.29L409.38 323.594L407.091 316.058L405.61 316.509L405.454 316.555L398.483 315.915L398.277 315.899L395.639 319.538C393.703 320.126 392.081 321.458 391.128 323.242C390.174 325.026 389.969 327.115 390.556 329.051H390.556Z" fill="#2F2E41"/>
<path d="M358.231 205.359C358.231 205.359 321.101 241.208 344.574 252.305H351.829C353.406 247.179 355.83 242.353 359.001 238.027C359.686 237.13 362.254 237.312 362.967 236.438C367.322 231.1 372.042 226.516 375.302 226.698L374.522 251.468L373.26 260.303C372.598 264.871 391.302 304.75 391.302 304.75L403.059 300.13C403.059 300.13 390.81 267.283 390.666 262.548L400.482 210.48L358.231 205.359Z" fill="#2F2E41"/>
<path d="M355.135 207.127C355.324 207.397 355.572 207.621 355.859 207.783C356.332 208.051 356.844 208.241 357.378 208.347C365.737 210.245 393.047 214.178 400.136 212.302C401.007 212.075 401.575 211.755 401.76 211.334C402.354 210.005 402.278 204.388 401.929 197.606C401.866 196.335 400.465 194.959 400.38 193.63C400.322 192.633 401.58 191.695 401.512 190.681C401.049 183.823 400.452 176.834 400.052 172.417C399.8 169.577 399.627 167.801 399.627 167.801L403.94 140.609L403.738 140.277L403.511 140.163L389.606 133.28L388.848 131.345C388.629 130.788 388.247 130.309 387.753 129.971C387.259 129.632 386.675 129.45 386.076 129.447L376.916 129.41C376.441 129.407 375.972 129.518 375.548 129.733C375.125 129.948 374.759 130.261 374.48 130.646L371.998 134.084L355.589 144.602L355.653 144.796L363.352 168.226L363.39 170.052V170.056L363.676 184.74L362.881 186.73L363.777 189.995C363.777 189.995 363.365 193.811 361.156 196.647C359.153 199.221 356.603 201.906 355.451 204.085V204.089C354.811 205.293 354.596 206.336 355.135 207.127Z" fill="#6C63FF"/>
<path d="M342.791 250.175L344.776 252.683C344.776 252.683 363.028 265.453 363.655 266.646L366.54 269.376L373.519 261.915L369.89 257.365C366.985 253.725 363.232 250.851 358.959 248.997V248.997L353.397 244.062L342.791 250.175Z" fill="#2F2E41"/>
<path d="M408.539 215.597L405.215 183.423L404.338 170.182L413.641 168.499C413.641 168.499 413.273 177.967 414.492 183.309C415.694 188.581 414.651 214.89 414.577 215.594C415.26 216.205 415.742 217.009 415.958 217.899C416.174 218.79 416.115 219.725 415.788 220.582C415.462 221.438 414.883 222.175 414.128 222.695C413.373 223.215 412.478 223.494 411.562 223.494C410.645 223.495 409.75 223.217 408.995 222.697C408.24 222.178 407.66 221.442 407.332 220.586C407.005 219.73 406.945 218.794 407.16 217.903C407.376 217.013 407.856 216.208 408.539 215.596V215.597Z" fill="#A0616A"/>
<path d="M397.46 166.871L400.052 172.417L400.956 174.348L403.392 187.104L404.608 188.396L405.656 192.565L406.148 192.465L415.025 190.626L417.613 190.092C418.196 189.12 418.426 187.977 418.263 186.855C418.101 185.734 417.556 184.702 416.721 183.936C416.544 183.776 416.397 183.621 416.401 183.473C416.549 174.6 416.006 158.398 411.104 151.729C409.548 149.613 408.614 147.505 407.255 146.033C407.25 146.028 407.25 146.024 407.246 146.024L403.939 140.609L403.737 140.277L403.51 140.163L397.46 166.871Z" fill="#6C63FF"/>
<path d="M382.212 127.13C388.943 127.13 394.399 121.674 394.399 114.944C394.399 108.213 388.943 102.757 382.212 102.757C375.482 102.757 370.025 108.213 370.025 114.944C370.025 121.674 375.482 127.13 382.212 127.13Z" fill="#A0616A"/>
<path d="M396.683 112.322C397.039 110.274 397.318 107.619 396.295 105.259C395.431 103.272 393.27 101.41 390.867 101.661C390.981 101.213 390.969 100.742 390.831 100.3C390.693 99.8585 390.436 99.4638 390.087 99.1598C389.304 98.5456 388.393 98.117 387.421 97.9063C385.163 97.2426 382.824 96.5545 380.408 96.5417C377.698 96.527 375.296 97.4556 373.823 99.0929L373.787 99.1458L373.346 100.2C373.287 100.341 373.198 100.468 373.085 100.572C372.972 100.676 372.838 100.754 372.692 100.801C372.546 100.849 372.391 100.865 372.239 100.846C372.086 100.827 371.939 100.775 371.809 100.693C371.666 100.605 371.503 100.556 371.335 100.551C371.168 100.545 371.002 100.584 370.853 100.662C370.705 100.74 370.58 100.856 370.49 100.998C370.4 101.139 370.349 101.302 370.341 101.47L370.318 101.919L369.686 101.667C369.527 101.603 369.354 101.583 369.185 101.608C369.016 101.633 368.856 101.702 368.723 101.81C368.59 101.917 368.488 102.058 368.427 102.218C368.366 102.378 368.35 102.551 368.378 102.72L368.463 103.255C368.327 103.23 368.187 103.233 368.052 103.263C367.917 103.294 367.79 103.351 367.678 103.432C367.517 103.55 367.398 103.716 367.338 103.906C367.278 104.096 367.279 104.3 367.343 104.489C367.833 105.889 368.672 107.141 369.779 108.129C370.276 108.578 370.832 108.956 371.433 109.253C371.558 109.316 371.687 109.376 371.822 109.432C376.679 111.514 381.875 112.691 387.155 112.905C386.656 113.858 386.333 114.893 386.203 115.96C386.131 116.566 386.226 117.18 386.478 117.735C386.73 118.291 387.129 118.767 387.632 119.111C387.851 119.236 388.08 119.341 388.317 119.425C388.544 119.508 388.763 119.61 388.974 119.729C389.282 119.915 389.536 120.18 389.709 120.496C389.882 120.812 389.969 121.168 389.96 121.528C389.952 121.889 389.848 122.24 389.66 122.548C389.472 122.855 389.206 123.107 388.889 123.279C388.889 123.279 389.796 124.386 389.941 124.367C390.519 124.236 391.041 123.927 391.434 123.484C394.074 120.922 395.839 117.168 396.683 112.322Z" fill="#2F2E41"/>
<path d="M450.036 300.703L450.566 288.793C456.087 285.842 462.246 284.283 468.507 284.252C459.89 291.297 460.967 304.877 455.125 314.35C453.28 317.291 450.797 319.779 447.86 321.63C444.923 323.481 441.608 324.647 438.159 325.042L430.948 329.457C429.958 323.941 430.177 318.276 431.587 312.852C432.998 307.429 435.568 302.376 439.12 298.041C441.136 295.629 443.448 293.48 446.002 291.646C447.729 296.2 450.036 300.703 450.036 300.703Z" fill="#F2F2F2"/>
<path d="M486.293 330.024C486.293 330.14 486.271 330.255 486.226 330.362C486.182 330.469 486.117 330.567 486.035 330.649C485.953 330.731 485.855 330.796 485.748 330.84C485.641 330.885 485.526 330.907 485.41 330.907H0.883255C0.649001 330.907 0.42434 330.814 0.258698 330.648C0.0930556 330.482 0 330.258 0 330.024C0 329.789 0.0930556 329.565 0.258698 329.399C0.42434 329.233 0.649001 329.14 0.883255 329.14H485.41C485.526 329.14 485.641 329.163 485.748 329.207C485.855 329.251 485.953 329.316 486.035 329.398C486.117 329.48 486.182 329.578 486.226 329.685C486.271 329.792 486.293 329.907 486.293 330.024V330.024Z" fill="#CCCCCC"/>
<path d="M208.413 240.865C207.132 240.899 205.89 240.423 204.959 239.542C204.028 238.662 203.485 237.447 203.448 236.167L203.071 222.524C203.037 221.243 203.513 220.002 204.394 219.072C205.275 218.142 206.489 217.6 207.77 217.565C209.05 217.529 210.292 218.004 211.223 218.884C212.154 219.763 212.698 220.977 212.735 222.257L213.111 235.9C213.145 237.181 212.67 238.423 211.789 239.354C210.908 240.285 209.694 240.828 208.413 240.865V240.865Z" fill="#3F3D56"/>
<path d="M421.578 290.726C414.235 290.726 406.187 290.449 397.435 289.894C352.161 287.019 293.519 277.023 232.309 261.749C171.1 246.476 114.637 227.747 73.3205 209.015C53.1942 199.89 37.7474 191.252 27.4096 183.342C16.4646 174.967 11.6771 167.667 13.1795 161.646C16.107 149.915 42.0282 147.348 63.258 147.261L63.2652 148.967C34.1111 149.087 16.9117 153.736 14.835 162.059C12.1897 172.659 33.7637 189.207 74.025 207.461C115.25 226.152 171.61 244.845 232.723 260.094C293.835 275.344 352.369 285.322 397.543 288.191C441.659 290.993 468.479 286.52 471.124 275.92C473.32 267.119 458.842 254.155 430.357 239.413L431.141 237.898C451.839 248.61 475.864 263.972 472.78 276.333C471.277 282.355 463.621 286.549 450.025 288.8C442.274 290.083 432.754 290.726 421.578 290.726Z" fill="#CCCCCC"/>
<path d="M31.8782 279.55C26.0517 279.55 22.2638 278.102 20.5872 275.224C17.281 269.549 22.8183 259.59 37.0447 245.625L38.2398 246.842C25.0249 259.815 19.2791 269.589 22.0611 274.366C23.8215 277.387 29.0605 278.469 37.215 277.495C45.31 276.529 56.0379 273.649 69.1007 268.934C95.9932 259.229 129.733 242.858 164.104 222.836C198.474 202.816 229.358 181.542 251.067 162.937C255.237 159.362 259.021 155.924 262.315 152.717C266.638 148.61 270.627 144.165 274.243 139.423C279.112 132.812 280.756 127.72 278.995 124.698C276.056 119.652 263.706 120.126 244.218 126.036L243.724 124.404C264.631 118.064 276.994 117.873 280.47 123.84C282.629 127.546 280.996 133.13 275.617 140.435C271.945 145.252 267.895 149.768 263.505 153.939C260.186 157.171 256.374 160.634 252.177 164.232C230.392 182.903 199.419 204.239 164.962 224.31C130.505 244.382 96.6663 260.8 69.6799 270.539C56.4955 275.297 45.6407 278.208 37.4171 279.189C35.5795 279.418 33.73 279.539 31.8782 279.55V279.55Z" fill="#CCCCCC"/>
<path d="M343.244 209.507C339.028 209.423 316.381 208.773 312.667 208.933C312.457 208.197 305.417 217.22 305.246 217.276C305.132 217.396 305.048 217.542 305.003 217.702C304.958 217.862 304.952 218.03 304.985 218.192C305.019 218.355 305.092 218.507 305.197 218.635C305.302 218.763 305.437 218.864 305.59 218.929C306.003 219.18 342.514 218.505 342.956 218.593C343.147 218.59 343.334 218.533 343.494 218.429C343.655 218.324 343.782 218.177 343.862 218.003L344.106 217.456C344.132 216.521 344.438 211.742 344.163 210.925C344.23 210.772 344.259 210.604 344.245 210.437C344.232 210.27 344.177 210.109 344.086 209.968C343.995 209.828 343.87 209.712 343.723 209.631C343.576 209.551 343.412 209.508 343.244 209.507V209.507Z" fill="#E6E6E6"/>
<path opacity="0.17" d="M344.106 217.455C343.891 217.97 343.617 218.617 342.955 218.593L305.974 219.008C305.8 219.006 305.628 218.96 305.477 218.872C305.325 218.785 305.198 218.66 305.109 218.51C305.02 218.359 304.97 218.188 304.966 218.014C304.962 217.839 305.003 217.666 305.084 217.511L344.106 217.455Z" fill="black"/>
<path d="M312.84 208.822C312.442 208.134 302.555 159.213 301.73 158.804L294.979 150.547L294.376 150.093C293.537 149.632 291.525 149.944 291.706 151.225C293.292 158.828 303.492 202.131 303.715 208.882L304.943 217.482C304.965 217.629 305.017 217.769 305.097 217.894C305.176 218.019 305.281 218.125 305.404 218.207C305.527 218.289 305.666 218.345 305.812 218.37C305.958 218.394 306.107 218.389 306.251 218.352C306.603 218.314 306.939 218.185 307.226 217.978C307.512 217.771 307.74 217.492 307.887 217.17C307.979 216.866 313.302 208.998 312.84 208.822Z" fill="#E6E6E6"/>
<path opacity="0.17" d="M294.978 150.547L307.888 217.172C307.457 218.264 305.436 219.03 304.966 217.597C304.958 217.595 291.721 151.266 291.708 151.226C291.567 149.63 294.204 149.58 294.978 150.547Z" fill="black"/>
<path d="M295.367 153.271L301.924 162.411L309.283 197.363L305.862 200.348L295.367 153.271Z" fill="#6C63FF"/>
<path d="M339.012 214.22L340.826 214.294C340.854 213.763 340.942 213.236 341.087 212.724C341.36 211.428 341.605 209.887 340.473 209.892C339.705 209.818 339.444 210.791 339.307 211.849C339.272 212.646 339.173 213.439 339.012 214.22Z" fill="#2F2E41"/>
<path d="M328.604 211.78L329.827 211.826L330.419 211.849C330.407 211.2 330.709 209.864 329.975 209.534C329.858 209.484 329.732 209.459 329.605 209.46C328.917 209.42 328.713 209.944 328.65 210.546C328.61 210.91 328.627 211.297 328.616 211.598C328.616 211.661 328.61 211.723 328.604 211.78Z" fill="#2F2E41"/>
<path d="M324.982 211.632L326.211 211.684L326.796 211.706C326.785 210.961 327.177 209.335 325.983 209.312C324.88 209.25 325.022 210.654 324.994 211.451C324.994 211.513 324.988 211.576 324.982 211.632Z" fill="#2F2E41"/>
<path d="M321.36 211.49L322.583 211.536L323.174 211.559C323.163 210.819 323.555 209.193 322.361 209.17C321.258 209.102 321.4 210.507 321.372 211.308C321.372 211.371 321.366 211.433 321.36 211.49Z" fill="#2F2E41"/>
<path d="M317.738 211.342L318.967 211.394L319.552 211.416C319.541 210.671 319.933 209.051 318.739 209.022C317.636 208.96 317.778 210.364 317.75 211.16C317.75 211.223 317.744 211.286 317.738 211.342Z" fill="#2F2E41"/>
<path d="M314.115 211.2L315.338 211.246L315.929 211.269C315.918 210.586 316.248 209.159 315.372 208.914H315.366C315.285 208.89 315.201 208.879 315.116 208.88C315.013 208.871 314.909 208.881 314.809 208.909H314.803C314.041 209.108 314.149 210.302 314.127 211.018C314.127 211.081 314.121 211.143 314.115 211.2Z" fill="#2F2E41"/>
<path d="M335.354 210.814L337.169 210.888C337.169 210.819 337.168 210.745 337.174 210.66C337.219 210.227 337.227 209.792 337.197 209.358C337.134 208.88 336.93 208.505 336.355 208.493C335.77 208.459 335.536 208.835 335.445 209.318C335.424 209.4 335.409 209.484 335.4 209.568V209.574C335.354 210.017 335.383 210.495 335.354 210.814Z" fill="#2F2E41"/>
<path d="M331.732 210.666L333.546 210.74C333.585 210.252 333.596 209.762 333.581 209.273C333.529 208.772 333.33 208.363 332.733 208.351C332.13 208.312 331.897 208.721 331.806 209.227C331.721 209.716 331.767 210.302 331.732 210.666Z" fill="#2F2E41"/>
<path d="M328.11 210.524L328.651 210.546L329.924 210.598C329.919 210.325 329.97 209.926 329.976 209.534C329.98 209.416 329.977 209.299 329.964 209.182C329.919 208.653 329.731 208.215 329.111 208.203C328.48 208.169 328.258 208.607 328.179 209.142C328.099 209.619 328.144 210.171 328.11 210.524Z" fill="#2F2E41"/>
<path d="M335.389 214.078L337.203 214.146C337.197 213.407 337.584 211.78 336.389 211.758C335.195 211.684 335.457 213.333 335.389 214.078Z" fill="#2F2E41"/>
<path d="M331.767 213.93L333.581 214.004C333.575 213.259 333.962 211.632 332.767 211.61C331.573 211.541 331.835 213.191 331.767 213.93Z" fill="#2F2E41"/>
<path d="M328.145 213.788L329.959 213.856C329.953 213.327 330.152 212.349 329.828 211.826C329.757 211.71 329.656 211.615 329.536 211.552C329.416 211.489 329.281 211.46 329.145 211.468C328.959 211.448 328.772 211.494 328.616 211.598C328.036 211.979 328.201 213.185 328.145 213.788Z" fill="#2F2E41"/>
<path d="M324.521 213.64L326.336 213.714C326.33 213.185 326.523 212.213 326.21 211.684C326.14 211.566 326.038 211.47 325.917 211.406C325.796 211.342 325.659 211.312 325.522 211.32C325.336 211.299 325.149 211.346 324.993 211.45C324.413 211.843 324.578 213.043 324.521 213.64Z" fill="#2F2E41"/>
<path d="M320.899 213.498L322.713 213.566C322.708 213.037 322.907 212.059 322.583 211.536C322.512 211.42 322.411 211.325 322.291 211.262C322.171 211.199 322.036 211.17 321.9 211.178C321.714 211.158 321.527 211.204 321.371 211.308C320.791 211.689 320.956 212.895 320.899 213.498Z" fill="#2F2E41"/>
<path d="M317.277 213.35L319.091 213.424C319.086 212.895 319.279 211.922 318.966 211.394C318.896 211.276 318.795 211.179 318.673 211.115C318.552 211.051 318.415 211.021 318.278 211.03C318.092 211.009 317.905 211.056 317.749 211.161C317.169 211.553 317.334 212.753 317.277 213.35Z" fill="#2F2E41"/>
<path d="M313.654 213.208L315.468 213.276C315.463 212.747 315.656 211.775 315.338 211.246C315.267 211.129 315.167 211.035 315.046 210.971C314.926 210.908 314.791 210.879 314.655 210.888C314.469 210.868 314.282 210.914 314.126 211.018C313.546 211.405 313.711 212.605 313.654 213.208Z" fill="#2F2E41"/>
<path d="M334.141 207.951L347.967 178.71L353.194 166.513L344.978 161.834C344.978 161.834 342.18 170.887 339.255 175.521C336.369 180.093 328.611 205.254 328.447 205.942C327.6 206.291 326.878 206.889 326.378 207.658C325.878 208.426 325.623 209.328 325.647 210.244C325.671 211.16 325.972 212.048 326.511 212.789C327.05 213.53 327.801 214.09 328.666 214.395C329.53 214.7 330.467 214.736 331.352 214.497C332.236 214.258 333.028 213.756 333.621 213.058C334.215 212.359 334.582 211.497 334.675 210.585C334.768 209.673 334.582 208.755 334.141 207.951H334.141Z" fill="#A0616A"/>
<path d="M334.057 180.878L344.513 187.187L346.885 183.602L348.464 182.788L355.001 171.564L360.779 165.676L368.415 141.27L358.48 142.76L358.468 142.765C356.698 143.703 355.115 145.381 352.944 146.86C346.105 151.521 340.209 166.622 337.4 175.042C337.354 175.181 337.164 175.277 336.945 175.371C335.903 175.816 335.047 176.607 334.521 177.611C333.995 178.614 333.831 179.768 334.057 180.878L334.057 180.878Z" fill="#6C63FF"/>
</g>
<defs>
<clipPath id="clip0_16_354">
<rect width="486.293" height="330.907" fill="white"/>
</clipPath>
</defs>
</svg>
