<svg width="570" height="333" viewBox="0 0 570 333" fill="none" xmlns="http://www.w3.org/2000/svg">
<g clip-path="url(#clip0_13_144)">
<path d="M345.728 185.076H11.6963C8.59531 185.073 5.62234 183.84 3.42962 181.647C1.23689 179.454 0.0034909 176.481 0 173.38V11.6963C0.0034909 8.59531 1.23689 5.62234 3.42962 3.42962C5.62234 1.23689 8.59531 0.0034909 11.6963 0H345.728C348.829 0.0034909 351.802 1.23689 353.995 3.42962C356.188 5.62234 357.421 8.59531 357.425 11.6963V173.38C357.421 176.481 356.188 179.454 353.995 181.647C351.802 183.84 348.829 185.073 345.728 185.076V185.076ZM11.6963 1.37603C8.96013 1.37913 6.33693 2.46743 4.40218 4.40218C2.46743 6.33693 1.37913 8.96013 1.37603 11.6963V173.38C1.37913 176.116 2.46743 178.74 4.40218 180.674C6.33693 182.609 8.96013 183.697 11.6963 183.7H345.728C348.464 183.697 351.088 182.609 353.022 180.674C354.957 178.74 356.045 176.116 356.049 173.38V11.6963C356.045 8.96013 354.957 6.33693 353.022 4.40218C351.088 2.46743 348.464 1.37913 345.728 1.37603H11.6963Z" fill="white"/>
<path d="M64.1575 40.249C67.5773 40.249 70.3496 37.4766 70.3496 34.0568C70.3496 30.637 67.5773 27.8647 64.1575 27.8647C60.7377 27.8647 57.9653 30.637 57.9653 34.0568C57.9653 37.4766 60.7377 40.249 64.1575 40.249Z" fill="#CCCCCC"/>
<path d="M64.1575 63.6415C67.5773 63.6415 70.3496 60.8692 70.3496 57.4494C70.3496 54.0296 67.5773 51.2572 64.1575 51.2572C60.7377 51.2572 57.9653 54.0296 57.9653 57.4494C57.9653 60.8692 60.7377 63.6415 64.1575 63.6415Z" fill="#CCCCCC"/>
<path d="M64.1575 87.0341C67.5773 87.0341 70.3496 84.2618 70.3496 80.8419C70.3496 77.4221 67.5773 74.6498 64.1575 74.6498C60.7377 74.6498 57.9653 77.4221 57.9653 80.8419C57.9653 84.2618 60.7377 87.0341 64.1575 87.0341Z" fill="#CCCCCC"/>
<path d="M64.1575 110.427C67.5773 110.427 70.3496 107.654 70.3496 104.235C70.3496 100.815 67.5773 98.0424 64.1575 98.0424C60.7377 98.0424 57.9653 100.815 57.9653 104.235C57.9653 107.654 60.7377 110.427 64.1575 110.427Z" fill="#CCCCCC"/>
<path d="M168.392 157.212C171.812 157.212 174.584 154.439 174.584 151.02C174.584 147.6 171.812 144.827 168.392 144.827C164.972 144.827 162.2 147.6 162.2 151.02C162.2 154.439 164.972 157.212 168.392 157.212Z" fill="#CCCCCC"/>
<path d="M123.671 157.212C127.091 157.212 129.863 154.439 129.863 151.02C129.863 147.6 127.091 144.827 123.671 144.827C120.251 144.827 117.479 147.6 117.479 151.02C117.479 154.439 120.251 157.212 123.671 157.212Z" fill="#CCCCCC"/>
<path d="M260.586 157.212C264.006 157.212 266.778 154.439 266.778 151.02C266.778 147.6 264.006 144.827 260.586 144.827C257.166 144.827 254.394 147.6 254.394 151.02C254.394 154.439 257.166 157.212 260.586 157.212Z" fill="#CCCCCC"/>
<path d="M213.801 157.212C217.221 157.212 219.993 154.439 219.993 151.02C219.993 147.6 217.221 144.827 213.801 144.827C210.381 144.827 207.609 147.6 207.609 151.02C207.609 154.439 210.381 157.212 213.801 157.212Z" fill="#CCCCCC"/>
<path d="M298.771 34.7448H95.1182C94.9357 34.7448 94.7607 34.6723 94.6317 34.5433C94.5027 34.4143 94.4302 34.2393 94.4302 34.0568C94.4302 33.8743 94.5027 33.6994 94.6317 33.5703C94.7607 33.4413 94.9357 33.3688 95.1182 33.3688H298.771C298.954 33.3688 299.129 33.4413 299.258 33.5703C299.387 33.6994 299.459 33.8743 299.459 34.0568C299.459 34.2393 299.387 34.4143 299.258 34.5433C299.129 34.6723 298.954 34.7448 298.771 34.7448Z" fill="#CCCCCC"/>
<path d="M298.771 58.1374H95.1182C94.9357 58.1374 94.7607 58.0649 94.6317 57.9359C94.5027 57.8068 94.4302 57.6319 94.4302 57.4494C94.4302 57.2669 94.5027 57.0919 94.6317 56.9629C94.7607 56.8339 94.9357 56.7614 95.1182 56.7614H298.771C298.954 56.7614 299.129 56.8339 299.258 56.9629C299.387 57.0919 299.459 57.2669 299.459 57.4494C299.459 57.6319 299.387 57.8068 299.258 57.9359C299.129 58.0649 298.954 58.1374 298.771 58.1374Z" fill="#CCCCCC"/>
<path d="M298.771 81.53H95.1182C94.9357 81.53 94.7607 81.4575 94.6317 81.3284C94.5027 81.1994 94.4302 81.0244 94.4302 80.8419C94.4302 80.6595 94.5027 80.4845 94.6317 80.3554C94.7607 80.2264 94.9357 80.1539 95.1182 80.1539H298.771C298.954 80.1539 299.129 80.2264 299.258 80.3554C299.387 80.4845 299.459 80.6595 299.459 80.8419C299.459 81.0244 299.387 81.1994 299.258 81.3284C299.129 81.4575 298.954 81.53 298.771 81.53Z" fill="#CCCCCC"/>
<path d="M298.771 104.923H95.1182C94.9357 104.923 94.7607 104.85 94.6317 104.721C94.5027 104.592 94.4302 104.417 94.4302 104.235C94.4302 104.052 94.5027 103.877 94.6317 103.748C94.7607 103.619 94.9357 103.546 95.1182 103.546H298.771C298.954 103.546 299.129 103.619 299.258 103.748C299.387 103.877 299.459 104.052 299.459 104.235C299.459 104.417 299.387 104.592 299.258 104.721C299.129 104.85 298.954 104.923 298.771 104.923Z" fill="#CCCCCC"/>
<path d="M133.647 128.315H113.695C112.783 128.314 111.908 127.951 111.263 127.306C110.618 126.661 110.256 125.787 110.255 124.875V106.299C110.256 105.387 110.618 104.512 111.263 103.867C111.908 103.222 112.783 102.86 113.695 102.858H133.647C134.559 102.86 135.434 103.222 136.079 103.867C136.723 104.512 137.086 105.387 137.087 106.299V124.875C137.086 125.787 136.723 126.661 136.079 127.306C135.434 127.951 134.559 128.314 133.647 128.315V128.315Z" fill="#6C63FF"/>
<path d="M178.368 128.315H158.416C157.504 128.314 156.629 127.951 155.985 127.306C155.34 126.661 154.977 125.787 154.976 124.875V82.906C154.977 81.9939 155.34 81.1196 155.985 80.4747C156.629 79.8297 157.504 79.467 158.416 79.4659H178.368C179.28 79.467 180.155 79.8297 180.8 80.4747C181.445 81.1196 181.807 81.9939 181.808 82.906V124.875C181.807 125.787 181.445 126.661 180.8 127.306C180.155 127.951 179.28 128.314 178.368 128.315V128.315Z" fill="#6C63FF"/>
<path d="M223.777 128.315H203.825C202.913 128.314 202.038 127.951 201.393 127.306C200.749 126.661 200.386 125.787 200.385 124.875V59.5134C200.386 58.6014 200.749 57.727 201.393 57.0821C202.038 56.4372 202.913 56.0744 203.825 56.0733H223.777C224.689 56.0744 225.564 56.4372 226.209 57.0821C226.854 57.727 227.216 58.6014 227.217 59.5134V124.875C227.216 125.787 226.854 126.661 226.209 127.306C225.564 127.951 224.689 128.314 223.777 128.315V128.315Z" fill="#6C63FF"/>
<path d="M270.562 128.315H250.61C249.698 128.314 248.824 127.951 248.179 127.306C247.534 126.661 247.171 125.787 247.17 124.875V36.8089C247.171 35.8968 247.534 35.0225 248.179 34.3775C248.824 33.7326 249.698 33.3698 250.61 33.3688H270.562C271.475 33.3698 272.349 33.7326 272.994 34.3775C273.639 35.0225 274.002 35.8968 274.003 36.8089V124.875C274.002 125.787 273.639 126.661 272.994 127.306C272.349 127.951 271.475 128.314 270.562 128.315V128.315Z" fill="#6C63FF"/>
<path d="M456.467 329.109C450.28 323.881 446.522 315.622 447.507 307.582C448.493 299.542 454.597 292.151 462.515 290.444C470.433 288.737 479.459 293.463 481.864 301.197C483.188 286.285 484.713 270.748 492.641 258.048C499.82 246.55 512.254 238.322 525.73 236.85C539.206 235.378 553.394 240.937 561.798 251.573C570.203 262.21 572.261 277.673 566.374 289.884C562.038 298.879 554.05 305.574 545.679 311.021C518.632 328.472 486.193 335.568 454.33 331.005L456.467 329.109Z" fill="#F2F2F2"/>
<path d="M548.472 241.245C537.353 250.302 527.153 260.431 518.018 271.487C503.722 288.729 492.154 308.06 483.716 328.808C483.099 330.321 485.557 330.98 486.167 329.484C499.973 295.764 522.012 266.045 550.27 243.043C551.539 242.009 549.731 240.221 548.472 241.245V241.245Z" fill="white"/>
<path d="M391.213 139.707C390.431 139.705 389.651 139.627 388.883 139.474H388.883C388.743 139.446 388.603 139.416 388.463 139.383L219.97 100.153C218.139 99.7264 216.924 98.5751 217.142 97.4743C217.234 97.1502 217.413 96.8577 217.661 96.6292C217.908 96.4007 218.214 96.245 218.545 96.1792C219.358 95.955 220.214 95.936 221.037 96.1238L390.576 131.53C394.393 132.327 397.044 134.67 396.609 136.864C396.382 138.011 395.371 138.901 393.763 139.37C392.933 139.601 392.074 139.715 391.213 139.707Z" fill="#3F3D56"/>
<path d="M355.52 134.279C356.392 134.792 357.366 135.107 358.373 135.203C359.379 135.298 360.395 135.172 361.348 134.832C362.301 134.493 363.167 133.948 363.887 133.238C364.607 132.527 365.162 131.667 365.513 130.719L390.094 131.231L383.284 120.421L360.986 121.592C359.354 121.107 357.6 121.238 356.058 121.96C354.515 122.681 353.291 123.944 352.617 125.508C351.944 127.072 351.867 128.828 352.402 130.445C352.937 132.062 354.046 133.426 355.52 134.279V134.279Z" fill="#CE6D6D"/>
<path d="M366.197 130.353L366.069 122.818C366.06 122.041 366.342 121.288 366.86 120.708C367.378 120.128 368.094 119.763 368.868 119.684L413.039 115.421L449.841 103.355C450.952 102.991 452.124 102.851 453.289 102.944C454.455 103.037 455.59 103.36 456.629 103.896C457.668 104.431 458.59 105.168 459.342 106.063C460.094 106.958 460.661 107.994 461.009 109.109C461.357 110.225 461.48 111.399 461.37 112.563C461.26 113.727 460.92 114.857 460.37 115.889C459.819 116.92 459.069 117.832 458.163 118.57C457.257 119.309 456.213 119.86 455.093 120.192L414.358 132.253L369.37 133.396C368.69 133.412 368.024 133.205 367.473 132.805C366.923 132.406 366.519 131.836 366.324 131.185C366.244 130.915 366.201 130.635 366.197 130.353V130.353Z" fill="#3F3D56"/>
<path d="M431.564 324.594L423.129 324.593L419.116 292.058L431.565 292.059L431.564 324.594Z" fill="#CE6D6D"/>
<path d="M433.715 332.77L406.518 332.769V332.425C406.518 331.035 406.791 329.658 407.323 328.374C407.855 327.09 408.635 325.923 409.618 324.94C410.601 323.957 411.768 323.177 413.053 322.645C414.337 322.113 415.714 321.839 417.104 321.839H417.104L433.716 321.84L433.715 332.77Z" fill="#2F2E41"/>
<path d="M456.333 324.594L447.898 324.593L443.885 292.058L456.334 292.059L456.333 324.594Z" fill="#CE6D6D"/>
<path d="M458.484 332.77L431.286 332.769V332.425C431.286 331.035 431.56 329.658 432.092 328.374C432.624 327.09 433.404 325.923 434.387 324.94C435.37 323.957 436.537 323.177 437.821 322.645C439.106 322.113 440.482 321.839 441.872 321.839H441.873L458.484 321.84L458.484 332.77Z" fill="#2F2E41"/>
<path d="M461.994 193.108L459.979 312.613C459.973 312.991 459.889 313.364 459.732 313.708C459.574 314.053 459.348 314.361 459.066 314.614C458.785 314.867 458.454 315.059 458.095 315.178C457.735 315.297 457.356 315.341 456.979 315.307L447.108 314.41C446.461 314.351 445.855 314.065 445.398 313.602C444.942 313.139 444.664 312.53 444.613 311.882L438.835 237.338C438.821 237.163 438.741 237 438.611 236.882C438.481 236.764 438.311 236.7 438.135 236.704C437.96 236.707 437.792 236.778 437.667 236.901C437.542 237.024 437.468 237.19 437.461 237.365L434.573 313.615C434.546 314.327 434.245 315 433.732 315.494C433.219 315.987 432.535 316.263 431.823 316.263H421.238C420.537 316.263 419.862 315.996 419.352 315.516C418.841 315.035 418.533 314.379 418.491 313.679L411.08 192.42L455.113 181.412L461.994 193.108Z" fill="#2F2E41"/>
<path d="M430.055 80.8953C439.388 80.8953 446.953 73.3296 446.953 63.9969C446.953 54.6641 439.388 47.0985 430.055 47.0985C420.722 47.0985 413.156 54.6641 413.156 63.9969C413.156 73.3296 420.722 80.8953 430.055 80.8953Z" fill="#CE6D6D"/>
<path d="M409.573 196.663C409.28 196.381 409.046 196.042 408.885 195.669C408.724 195.295 408.638 194.893 408.634 194.486L407.494 112.995C407.425 108.85 408.672 104.79 411.056 101.397C413.44 98.0052 416.837 95.4557 420.76 94.1152C422.343 86.9327 430.769 86.0331 435.681 86.1406C436.907 86.1669 438.109 86.4886 439.184 87.0782C440.26 87.6678 441.177 88.508 441.858 89.5276L445.379 94.8093L453.14 99.3587C456.732 101.455 459.565 104.638 461.231 108.449C462.897 112.26 463.309 116.501 462.408 120.561L461.213 125.996C457.006 145.232 457.406 165.191 462.381 184.243L464.786 193.411C464.911 193.888 464.92 194.389 464.813 194.87C464.705 195.352 464.484 195.801 464.168 196.18C463.852 196.559 463.449 196.857 462.994 197.049C462.54 197.24 462.046 197.321 461.553 197.283L458.761 197.068C458.036 197.013 457.354 196.704 456.834 196.196C456.314 195.688 455.989 195.013 455.918 194.29L455.456 189.668C455.447 189.583 455.407 189.505 455.344 189.447C455.281 189.39 455.199 189.358 455.113 189.358C455.028 189.358 454.946 189.39 454.883 189.447C454.819 189.505 454.78 189.583 454.771 189.668L454.324 194.142C454.248 194.898 453.897 195.6 453.338 196.114C452.779 196.628 452.05 196.918 451.291 196.93L411.777 197.538C411.761 197.538 411.744 197.539 411.728 197.539C410.923 197.54 410.149 197.226 409.573 196.663V196.663Z" fill="#3F3D56"/>
<path d="M431.377 73.7374C431.446 76.1262 433.104 77.5082 435.141 78.7594C437.177 80.0106 439.557 80.5532 441.889 81.0765C442.202 81.2428 442.553 81.3257 442.907 81.317C443.262 81.3083 443.608 81.2083 443.912 81.0269C444.217 80.8454 444.47 80.5884 444.646 80.2808C444.823 79.9732 444.917 79.6253 444.919 79.2708L447.058 71.1362C447.815 68.5377 448.365 65.8836 448.705 63.1985C449.22 58.0321 447.995 52.4744 444.389 48.7389C440.783 45.0035 434.529 43.6765 430.208 46.5546C425.08 40.0049 401.639 54.4758 407.422 59.0303C408.45 59.8406 410.023 58.8153 411.328 58.7159C412.634 58.6166 414.097 58.8462 414.927 59.8596C416.01 61.1834 415.538 63.1555 415.985 64.807C416.17 65.3881 416.468 65.9269 416.861 66.3922C417.255 66.8576 417.738 67.2404 418.28 67.5185C418.823 67.7966 419.415 67.9646 420.023 68.0127C420.631 68.0608 421.242 67.9881 421.822 67.7987C422.901 67.2668 423.917 66.6139 424.849 65.8526C425.85 65.1855 427.116 64.6926 428.243 65.1133C429.729 65.6679 430.257 67.4873 430.392 69.0677C430.618 70.6441 430.947 72.2039 431.377 73.7374V73.7374Z" fill="#2F2E41"/>
<path d="M556.558 333H294.424C294.241 333 294.066 332.927 293.937 332.798C293.808 332.669 293.736 332.494 293.736 332.312C293.736 332.13 293.808 331.955 293.937 331.825C294.066 331.696 294.241 331.624 294.424 331.624H556.558C556.74 331.624 556.915 331.696 557.044 331.825C557.173 331.955 557.246 332.13 557.246 332.312C557.246 332.494 557.173 332.669 557.044 332.798C556.915 332.927 556.74 333 556.558 333Z" fill="#3F3D56"/>
<path opacity="0.2" d="M427.43 119.027L424.678 152.74L410.23 187.829L431.558 153.428L427.43 119.027Z" fill="black"/>
<path d="M406.851 200.895C407.64 200.262 408.28 199.464 408.727 198.556C409.174 197.649 409.416 196.654 409.437 195.643C409.458 194.632 409.256 193.628 408.847 192.703C408.439 191.778 407.832 190.954 407.07 190.289L416.274 167.491L403.751 170.02L396.93 191.282C395.897 192.636 395.397 194.321 395.525 196.02C395.652 197.718 396.398 199.31 397.621 200.495C398.843 201.68 400.459 202.375 402.16 202.449C403.861 202.523 405.53 201.97 406.851 200.895V200.895Z" fill="#CE6D6D"/>
<path d="M406.181 190.841L399.092 188.286C398.362 188.019 397.758 187.488 397.399 186.797C397.041 186.107 396.954 185.308 397.155 184.557L408.85 141.749L410.633 103.06C410.686 101.892 410.972 100.747 411.472 99.6904C411.972 98.6339 412.678 97.6874 413.547 96.906C414.417 96.1245 415.433 95.5237 416.537 95.1385C417.64 94.7533 418.81 94.5914 419.977 94.6621C421.143 94.7329 422.285 95.0349 423.334 95.5506C424.383 96.0663 425.319 96.7855 426.088 97.6662C426.856 98.547 427.442 99.5718 427.811 100.681C428.18 101.79 428.325 102.962 428.238 104.127L425.053 146.491L410.152 188.954C409.926 189.596 409.496 190.145 408.927 190.518C408.358 190.891 407.682 191.067 407.004 191.018C406.723 190.996 406.446 190.937 406.181 190.841Z" fill="#3F3D56"/>
<path d="M298.771 128.315H95.1182C94.9357 128.315 94.7607 128.243 94.6317 128.114C94.5027 127.985 94.4302 127.81 94.4302 127.627C94.4302 127.445 94.5027 127.27 94.6317 127.141C94.7607 127.012 94.9357 126.939 95.1182 126.939H298.771C298.954 126.939 299.129 127.012 299.258 127.141C299.387 127.27 299.459 127.445 299.459 127.627C299.459 127.81 299.387 127.985 299.258 128.114C299.129 128.243 298.954 128.315 298.771 128.315Z" fill="#3F3D56"/>
<rect x="93" y="54" width="102" height="44" rx="8" fill="#CAC55C"/>
<rect x="205" y="98" width="102" height="44" rx="8" fill="#D9D9D9"/>
<rect x="149" y="172" width="102" height="44" rx="8" fill="#58E8DF"/>
<rect x="18" y="123" width="102" height="44" rx="8" fill="#EA1BD5"/>
<rect x="295" y="18" width="102" height="44" rx="8" fill="#D9D9D9"/>
<rect x="278" y="147" width="102" height="44" rx="8" fill="#FC3F3F"/>
</g>
<defs>
<clipPath id="clip0_13_144">
<rect width="569.732" height="333" fill="white"/>
</clipPath>
</defs>
</svg>
