<svg width="631" height="512" viewBox="0 0 631 512" fill="none" xmlns="http://www.w3.org/2000/svg">
<path d="M248.327 283.804C250.62 242.893 270.654 206.85 300.878 181.299C330.517 156.203 370.412 140.865 413.941 140.865C457.427 140.865 497.321 156.203 526.982 181.299C557.185 206.85 577.218 242.893 579.533 283.761C581.826 325.797 564.93 364.847 535.29 393.794C505.067 423.238 462.078 441.714 413.941 441.714C365.803 441.714 322.729 423.238 292.526 393.794C262.865 364.847 246.012 325.796 248.327 283.804V283.804Z" fill="white"/>
<path d="M328.84 287.502C330.017 266.51 340.296 248.017 355.804 234.906C371.013 222.03 391.483 214.159 413.818 214.159C436.131 214.159 456.601 222.03 471.82 234.906C487.317 248.017 497.596 266.511 498.784 287.48C499.961 309.049 491.291 329.086 476.083 343.939C460.575 359.047 438.517 368.527 413.818 368.527C389.118 368.527 367.016 359.047 351.519 343.939C336.3 329.086 327.652 309.049 328.84 287.502V287.502Z" fill="#265787"/>
<path d="M193.52 330.018C193.664 338.232 196.284 354.195 200.214 366.662C208.473 393.048 222.482 417.459 241.975 438.972C261.979 461.085 286.612 478.846 315.064 491.457C344.97 504.7 377.373 511.449 411.031 511.393C444.634 511.349 477.037 504.466 506.943 491.123C535.395 478.391 560.006 460.552 579.976 438.428C599.458 416.826 613.446 392.371 621.727 365.984C625.89 352.652 628.521 339.12 629.575 325.544C630.608 312.168 630.175 298.769 628.276 285.381C624.569 259.295 615.543 234.817 601.645 212.505C588.935 192.002 572.55 174.052 553.068 158.944L553.112 158.911L356.503 7.95079C356.326 7.81758 356.182 7.67349 355.993 7.55138C343.094 -2.35051 321.402 -2.31715 307.216 7.60694C292.873 17.642 291.23 34.2375 303.996 44.7055L303.941 44.7611L385.943 111.444L136.006 111.71H135.673C115.014 111.732 95.1546 125.286 91.2249 142.415C87.1841 159.865 101.216 174.34 122.696 174.418L122.663 174.496L249.346 174.252L23.2871 347.768C22.9985 347.979 22.6876 348.201 22.4212 348.412C1.09631 364.741 -5.7972 391.894 7.63492 409.078C21.2669 426.55 50.2513 426.583 71.7982 409.177L195.174 308.205C195.174 308.205 193.375 321.836 193.52 330.018V330.018ZM510.551 375.664C485.13 401.562 449.54 416.249 411.031 416.326C372.467 416.393 336.877 401.84 311.456 375.986C299.034 363.387 289.909 348.889 284.281 333.448C278.764 318.273 276.621 302.166 278.042 285.914C279.385 270.029 284.114 254.877 291.663 241.167C299.079 227.691 309.291 215.513 321.902 205.212C346.613 185.075 378.073 174.174 410.976 174.129C443.912 174.085 475.35 184.886 500.083 204.956C512.671 215.214 522.873 227.347 530.289 240.801C537.871 254.499 542.566 269.596 543.965 285.526C545.364 301.755 543.221 317.84 537.704 333.026C532.065 348.512 522.973 363.009 510.551 375.664V375.664Z" fill="#EA7600"/>
</svg>
